<svg xmlns="http://www.w3.org/2000/svg" width="151.248" height="20.214"
    viewBox="0 0 151.248 20.214">
    <g id="Group_5263" data-name="Group 5263" transform="translate(-3306.314 -1113.113)">
        <g id="Group_1375" data-name="Group 1375" transform="translate(3454.183 1113.113)">
            <g id="Group_1373" data-name="Group 1373" transform="translate(1.107 0.751)">
                <path id="Path_356" data-name="Path 356"
                    d="M4304.456,1119.156v-.008a.5.5,0,0,0,.359-.488.472.472,0,0,0-.151-.362.777.777,0,0,0-.554-.156,2.6,2.6,0,0,0-.471.039v1.885h.245v-.827h.233c.223.008.325.107.382.371a2.56,2.56,0,0,0,.126.456h.256a3.224,3.224,0,0,1-.147-.524A.473.473,0,0,0,4304.456,1119.156Zm-.318-.106h-.253v-.7a1,1,0,0,1,.245-.024c.261,0,.438.11.438.358C4304.567,1118.907,4304.4,1119.051,4304.138,1119.051Z"
                    transform="translate(-4303.64 -1118.142)" fill="#292929" />
            </g>
            <g id="Group_1374" data-name="Group 1374" transform="translate(0 0)">
                <path id="Path_357" data-name="Path 357"
                    d="M4297.918,1113.113a1.687,1.687,0,1,0,1.689,1.687A1.691,1.691,0,0,0,4297.918,1113.113Zm0,3.1a1.414,1.414,0,1,1,1.413-1.415A1.414,1.414,0,0,1,4297.918,1116.215Z"
                    transform="translate(-4296.229 -1113.113)" fill="#292929" />
            </g>
        </g>
        <g id="Group_1376" data-name="Group 1376" transform="translate(3306.314 1115.768)">
            <path id="Path_358" data-name="Path 358"
                d="M3310.088,1148.178v-.419l2.646-1.049v-14.388h-4.14l-1.862,3.957h-.419v-5.4h15.569v5.4h-.42l-1.834-3.957h-4.167v14.388l2.672,1.049v.419Z"
                transform="translate(-3306.313 -1130.882)" fill="#2ecc71" />
            <path id="Path_359" data-name="Path 359"
                d="M3417.727,1177.879v-.42l1.676-.839v-7.809l-1.6-1.337v-.21l3.616-1.467h.21l.235,2.254h.1a5.416,5.416,0,0,1,1.6-1.874,2.772,2.772,0,0,1,1.361-.38,2.632,2.632,0,0,1,.97.21q.786.289.786.734a1.155,1.155,0,0,1-.1.472l-.55,1.389h-.184l-.917-.367a3.412,3.412,0,0,0-1.179-.184,2.185,2.185,0,0,0-1.861,1.075v7.5l1.913.839v.42Z"
                transform="translate(-3401.082 -1160.583)" fill="#2ecc71" />
            <path id="Path_360" data-name="Path 360"
                d="M3489.061,1178.141a2.987,2.987,0,0,1-2.083-.747,2.634,2.634,0,0,1-.827-2.057,3.023,3.023,0,0,1,.932-2.215,6.852,6.852,0,0,1,3.236-1.481l2.49-.576v-1.835a2.034,2.034,0,0,0-.695-1.572,2.326,2.326,0,0,0-1.611-.629q-1.73,0-1.73,1.86v.839l-.13.131H3487.2q-.683,0-.682-.76a2.576,2.576,0,0,1,1.441-2.2,8.573,8.573,0,0,1,1.6-.8,4.934,4.934,0,0,1,1.73-.3,5.945,5.945,0,0,1,2.765.642,2.375,2.375,0,0,1,1.245,2.319v7.312a1.827,1.827,0,0,0,1.415.445h.918l.1.052v.157a3,3,0,0,1-.957.983,2.721,2.721,0,0,1-1.559.433,2.145,2.145,0,0,1-2.228-1.625h-.183a6.006,6.006,0,0,1-1.665,1.153A4.75,4.75,0,0,1,3489.061,1178.141Zm-.524-3.381q0,1.625,1.914,1.625a6.157,6.157,0,0,0,2.358-.524v-3.879a8.364,8.364,0,0,0-3.551,1.219A2.065,2.065,0,0,0,3488.537,1174.76Z"
                transform="translate(-3459.29 -1160.583)" fill="#2ecc71" />
            <path id="Path_361" data-name="Path 361"
                d="M3569.492,1177.879v-.42l1.677-.839v-7.836l-1.6-1.311v-.21l3.617-1.467h.184l.235,1.939h.132a8.525,8.525,0,0,1,1.912-1.454,4.367,4.367,0,0,1,2.07-.485,4.035,4.035,0,0,1,2.529.773,2.736,2.736,0,0,1,1.009,2.319v7.731l1.653.839v.42h-5.872v-.42l1.729-.839V1170.1a2.065,2.065,0,0,0-.681-1.69,2.662,2.662,0,0,0-1.755-.564,5.632,5.632,0,0,0-1.441.209,2.887,2.887,0,0,0-1.258.655v7.915l1.729.839v.42Z"
                transform="translate(-3530.183 -1160.583)" fill="#2ecc71" />
            <path id="Path_362" data-name="Path 362"
                d="M3676.29,1178.141a9.157,9.157,0,0,1-2.164-.223,8.377,8.377,0,0,1-1.82-.695v-2.935h.395l.836,1.415a2.9,2.9,0,0,0,2.675,1.441q2.174,0,2.176-1.782a1.587,1.587,0,0,0-.773-1.494q-.773-.445-2.215-1.1a6.685,6.685,0,0,1-2.085-1.337,2.754,2.754,0,0,1-.719-2.018,3.281,3.281,0,0,1,1.2-2.568,4.015,4.015,0,0,1,2.7-1.048,6.935,6.935,0,0,1,1.781.223,8.226,8.226,0,0,1,1.651.642v2.909h-.366l-.867-1.364a2.5,2.5,0,0,0-2.121-1.362q-1.915,0-1.914,1.625a1.531,1.531,0,0,0,.6,1.3,9.789,9.789,0,0,0,1.941,1.036,19.134,19.134,0,0,1,2.161,1.179,2.722,2.722,0,0,1,1.035,2.49,3.111,3.111,0,0,1-1.363,2.726A4.8,4.8,0,0,1,3676.29,1178.141Z"
                transform="translate(-3617.639 -1160.583)" fill="#2ecc71" />
        </g>
        <g id="Group_1380" data-name="Group 1380" transform="translate(3441.198 1113.113)">
            <g id="Group_1377" data-name="Group 1377" transform="translate(1.82 0)">
                <path id="Path_363" data-name="Path 363"
                    d="M4231.278,1113.383v7.677a1.979,1.979,0,0,1-1.988,1.97h-.583v-7.039c0-.005,0-.01,0-.015a.127.127,0,0,0,0-.013.274.274,0,0,0-.261-.258h-6.933v-.374a2.23,2.23,0,0,1,2.241-2.218H4231A.272.272,0,0,1,4231.278,1113.383Z"
                    transform="translate(-4221.514 -1113.113)" fill="#2ecc71" />
            </g>
            <g id="Group_1378" data-name="Group 1378" transform="translate(0 3.963)">
                <path id="Path_364" data-name="Path 364"
                    d="M4216.944,1139.913v5.205a1.973,1.973,0,0,1-1.983,1.964h-.571v-4.642a.273.273,0,0,0-.259-.271h-4.807v-.332a2.206,2.206,0,0,1,2.217-2.2h5.14A.274.274,0,0,1,4216.944,1139.913Z"
                    transform="translate(-4209.324 -1139.642)" fill="#2ecc71" />
            </g>
            <g id="Group_1379" data-name="Group 1379" transform="translate(4.779 6.489)">
                <path id="Path_365" data-name="Path 365" d="M4241.344,1156.556h0Z"
                    transform="translate(-4241.32 -1156.556)" fill="#2ecc71" />
            </g>
        </g>
        <g id="Group_1381" data-name="Group 1381" transform="translate(3371.044 1113.408)">
            <path id="Path_366" data-name="Path 366"
                d="M3739.646,1163.1v-.525l1.862-.654v-12.318l-1.862-.655v-.524h5.295a6.525,6.525,0,0,1,3.826.983,3.121,3.121,0,0,1,1.388,2.686,3.249,3.249,0,0,1-.824,2.254,5.308,5.308,0,0,1-2.242,1.415l4.168,6.238,1.624.576v.525h-3.275l-4.377-6.814h-1.861v5.608l1.729.681v.525Zm5.163-13.55h-1.44v5.609h1.572a3.409,3.409,0,0,0,2.333-.76,2.557,2.557,0,0,0,.864-2.018Q3748.138,1149.554,3744.809,1149.554Z"
                transform="translate(-3739.646 -1143.446)" fill="#333" />
            <path id="Path_367" data-name="Path 367"
                d="M3836.615,1178.29a5.268,5.268,0,0,1-4.088-1.6,5.914,5.914,0,0,1-1.469-4.167,6.821,6.821,0,0,1,1.652-4.678,5,5,0,0,1,3.852-1.873,4,4,0,0,1,3.249,1.415,6.365,6.365,0,0,1,1.259,3.983l-.105.1h-8.151v.209a5.712,5.712,0,0,0,1.088,3.525,4.114,4.114,0,0,0,3.525,1.455,6.028,6.028,0,0,0,3.565-1.154h.079v.289a4.815,4.815,0,0,1-1.743,1.769A5.056,5.056,0,0,1,3836.615,1178.29Zm-.447-11.4a2.835,2.835,0,0,0-2.148.956,4.782,4.782,0,0,0-1.126,2.687h6.394Q3838.762,1166.89,3836.168,1166.89Z"
                transform="translate(-3817.402 -1158.371)" fill="#333" />
            <path id="Path_368" data-name="Path 368"
                d="M3910.589,1178.028v-.419l1.652-.656v-8.7l-1.7-.891v-.288l3.066-1.1h.21l.183,1.912h.1a5.573,5.573,0,0,1,3.905-1.912,3.953,3.953,0,0,1,2.594.838,2.971,2.971,0,0,1,1.022,2.437v7.705l1.652.656v.419h-5.294v-.419l1.861-.656v-6.682a2.566,2.566,0,0,0-.786-2.031,2.943,2.943,0,0,0-2.019-.695,5.016,5.016,0,0,0-1.612.3,3.449,3.449,0,0,0-1.4.852v8.255l1.862.656v.419Z"
                transform="translate(-3885.013 -1158.371)" fill="#333" />
            <path id="Path_369" data-name="Path 369"
                d="M4005.242,1163.366a2.766,2.766,0,0,1-1.9-.682,2.414,2.414,0,0,1-.773-1.913v-8.36h-2.2v-.21l2.332-.891,1.442-2.883h.21v2.883h3.459v1.1h-3.459v8.073a1.2,1.2,0,0,0,.55,1.087,2.526,2.526,0,0,0,1.389.354,4.927,4.927,0,0,0,1.783-.314l.052.025v.184a2.987,2.987,0,0,1-.983,1.035A3.216,3.216,0,0,1,4005.242,1163.366Z"
                transform="translate(-3961.427 -1143.446)" fill="#333" />
            <path id="Path_370" data-name="Path 370"
                d="M4063.4,1178.29a2.967,2.967,0,0,1-2.044-.72,2.538,2.538,0,0,1-.812-2.006,2.88,2.88,0,0,1,.944-2.175,6.915,6.915,0,0,1,3.119-1.415l2.542-.629v-2.018a2.073,2.073,0,0,0-.772-1.651,2.6,2.6,0,0,0-1.718-.655,1.836,1.836,0,0,0-1.467.5,2.047,2.047,0,0,0-.418,1.363v.865l-.132.131h-1.1a.6.6,0,0,1-.681-.681,2.5,2.5,0,0,1,1.361-2.123,9.219,9.219,0,0,1,1.508-.786,4.1,4.1,0,0,1,1.56-.314,4.856,4.856,0,0,1,2.541.642,2.368,2.368,0,0,1,1.074,2.214v7.731a1.832,1.832,0,0,0,1.337.42h1.152l.053.052v.052a2.73,2.73,0,0,1-.8.825,2.28,2.28,0,0,1-1.35.38,1.972,1.972,0,0,1-1.364-.446,2.1,2.1,0,0,1-.654-1.127h-.131a5.594,5.594,0,0,1-1.664,1.127A4.993,4.993,0,0,1,4063.4,1178.29Zm-1.1-3.224q0,1.835,2.1,1.835a6.208,6.208,0,0,0,2.752-.682v-4.114a11.28,11.28,0,0,0-4.011,1.323A2.025,2.025,0,0,0,4062.3,1175.066Z"
                transform="translate(-4012.614 -1158.371)" fill="#333" />
            <path id="Path_371" data-name="Path 371"
                d="M4137.8,1134.747v-.42l1.649-.656v-16.3l-1.7-1.024v-.262l3.277-1h.21v18.581l1.73.656v.42Z"
                transform="translate(-4078.283 -1115.091)" fill="#333" />
            <path id="Path_372" data-name="Path 372"
                d="M4189.764,1178.29a7.876,7.876,0,0,1-1.927-.21,8.247,8.247,0,0,1-1.663-.629v-2.857h.339l.657,1.337a2.61,2.61,0,0,0,2.647,1.546q2.38,0,2.384-2.071a1.879,1.879,0,0,0-.693-1.6,10.611,10.611,0,0,0-2.111-1.127,6.541,6.541,0,0,1-2.189-1.337,2.828,2.828,0,0,1-.719-2.07,3,3,0,0,1,1.1-2.333,3.6,3.6,0,0,1,2.438-.969,6.186,6.186,0,0,1,1.782.236,8.619,8.619,0,0,1,1.493.6v2.778h-.342l-.654-1.284a2.431,2.431,0,0,0-.955-1.153,2.51,2.51,0,0,0-1.274-.341q-2.014,0-2.017,1.887a1.725,1.725,0,0,0,.616,1.4,8.038,8.038,0,0,0,1.875,1.062,11.062,11.062,0,0,1,2.293,1.271,2.807,2.807,0,0,1,.928,2.4,3,3,0,0,1-1.243,2.516A4.471,4.471,0,0,1,4189.764,1178.29Z"
                transform="translate(-4119.477 -1158.371)" fill="#333" />
        </g>
    </g>
</svg>
