<svg id="Icon_ionic-ios-mail" data-name="Icon ionic-ios-mail" xmlns="http://www.w3.org/2000/svg" width="24.875" height="17.221" viewBox="0 0 24.875 17.221">
  <path id="Path_350" data-name="Path 350" d="M28.047,10.351,21.613,16.9a.116.116,0,0,0,0,.167l4.5,4.8a.776.776,0,0,1,0,1.1.78.78,0,0,1-1.1,0L20.53,18.19a.123.123,0,0,0-.173,0L19.263,19.3a4.814,4.814,0,0,1-3.432,1.447,4.911,4.911,0,0,1-3.5-1.489l-1.052-1.07a.123.123,0,0,0-.173,0L6.616,22.967a.78.78,0,0,1-1.1,0,.776.776,0,0,1,0-1.1l4.5-4.8a.127.127,0,0,0,0-.167l-6.44-6.554a.118.118,0,0,0-.2.084V23.547a1.919,1.919,0,0,0,1.913,1.913H26.337a1.919,1.919,0,0,0,1.913-1.913V10.434A.12.12,0,0,0,28.047,10.351Z" transform="translate(-3.375 -8.24)" fill="#d6d6d6"/>
  <path id="Path_351" data-name="Path 351" d="M15.94,18.824a3.251,3.251,0,0,0,2.338-.981L27.66,8.294a1.879,1.879,0,0,0-1.184-.419H5.41a1.867,1.867,0,0,0-1.184.419l9.382,9.549A3.251,3.251,0,0,0,15.94,18.824Z" transform="translate(-3.502 -7.875)" fill="#d6d6d6"/>
</svg>
