<svg xmlns="http://www.w3.org/2000/svg" width="15.5" height="15.547" viewBox="0 0 15.5 15.547">
  <g id="inbox" transform="translate(-1.05 -0.95)">
    <path id="Path_2733" data-name="Path 2733" d="M15.882,30.224a.438.438,0,0,0-.44.44v4.763a1.823,1.823,0,0,1-1.783,1.905H3.938a1.823,1.823,0,0,1-1.783-1.905V30.64a.438.438,0,0,0-.44-.44.418.418,0,0,0-.415.44V35.4a2.718,2.718,0,0,0,2.638,2.76H13.66A2.7,2.7,0,0,0,16.3,35.4V30.64A.385.385,0,0,0,15.882,30.224Z" transform="translate(0 -21.916)" fill="#0e0e0f" stroke="#0e0e0f" stroke-width="0.5"/>
    <path id="Path_2734" data-name="Path 2734" d="M21.879,11.093a1.124,1.124,0,0,0,.806.318,1.069,1.069,0,0,0,.782-.318l2.1-2.076a.432.432,0,0,0-.611-.611l-1.832,1.832V1.64a.438.438,0,0,0-.44-.44.418.418,0,0,0-.415.44v8.622L20.414,8.406a.432.432,0,0,0-.611.611Z" transform="translate(-13.887)" fill="#0e0e0f" stroke="#0e0e0f" stroke-width="0.5"/>
  </g>
</svg>
