<svg xmlns="http://www.w3.org/2000/svg" width="15.302" height="14.733" viewBox="0 0 15.302 14.733">
  <g id="logout-line" transform="translate(-4.875 -3.875)">
    <path id="Path_2193" data-name="Path 2193" d="M6.034,5.034H14.31V10.1h1.034V5.034A1.034,1.034,0,0,0,14.31,4H6.034A1.034,1.034,0,0,0,5,5.034V17.448a1.034,1.034,0,0,0,1.034,1.034H14.31a1.034,1.034,0,0,0,1.034-1.034H6.034Z" fill="#0e0e0f" stroke="#0e0e0f" stroke-width="0.25"/>
    <path id="Path_2194" data-name="Path 2194" d="M21.628,17.164a.517.517,0,0,0-.729.729l1.748,1.712h-7.5a.517.517,0,1,0,0,1.034h7.5L20.9,22.429a.517.517,0,1,0,.729.729l3.021-3Z" transform="translate(-4.649 -6.295)" fill="#0e0e0f" stroke="#0e0e0f" stroke-width="0.25"/>
  </g>
</svg>
