<svg xmlns="http://www.w3.org/2000/svg" width="15" height="18.775" viewBox="0 0 15 18.775">
  <g id="Icon_ionic-ios-notifications-outline" data-name="Icon ionic-ios-notifications-outline" transform="translate(-6.775 -3.93)">
    <path id="Path_2189" data-name="Path 2189" d="M18.484,28.336a.608.608,0,0,0-.6.479,1.176,1.176,0,0,1-.235.511.887.887,0,0,1-.755.277.9.9,0,0,1-.755-.277,1.176,1.176,0,0,1-.235-.511.608.608,0,0,0-.6-.479h0a.612.612,0,0,0-.6.746A2.1,2.1,0,0,0,16.9,30.823a2.093,2.093,0,0,0,2.182-1.741.614.614,0,0,0-.6-.746Z" transform="translate(-2.636 -8.118)"/>
    <path id="Path_2190" data-name="Path 2190" d="M21.587,17.834c-.723-.953-2.144-1.511-2.144-5.777,0-4.378-1.933-6.138-3.735-6.56-.169-.042-.291-.1-.291-.277V5.085A1.151,1.151,0,0,0,14.29,3.93h-.028a1.151,1.151,0,0,0-1.126,1.154v.136c0,.174-.122.235-.291.277-1.807.427-3.735,2.182-3.735,6.56,0,4.266-1.422,4.819-2.144,5.777a.931.931,0,0,0,.746,1.492H20.855A.932.932,0,0,0,21.587,17.834Zm-1.83.272H8.814a.206.206,0,0,1-.155-.343A5.685,5.685,0,0,0,9.644,16.2a10.634,10.634,0,0,0,.671-4.139A7.2,7.2,0,0,1,11.3,7.985a3.011,3.011,0,0,1,1.816-1.3,1.644,1.644,0,0,0,.873-.493.371.371,0,0,1,.558-.009,1.7,1.7,0,0,0,.882.5,3.011,3.011,0,0,1,1.816,1.3,7.2,7.2,0,0,1,.981,4.073,10.634,10.634,0,0,0,.671,4.139A5.75,5.75,0,0,0,19.9,17.788.194.194,0,0,1,19.757,18.107Z" transform="translate(0 0)"/>
  </g>
</svg>
