<svg xmlns="http://www.w3.org/2000/svg" width="20.251" height="20.249" viewBox="0 0 20.251 20.249">
    <path id="Icon_ionic-ios-call" data-name="Icon ionic-ios-call"
        d="M24.156,20.358A17.01,17.01,0,0,0,20.6,17.981c-1.065-.511-1.455-.5-2.209.042-.627.453-1.033.875-1.756.717a10.472,10.472,0,0,1-3.527-2.61A10.4,10.4,0,0,1,10.5,12.6c-.153-.728.269-1.128.717-1.756.543-.754.559-1.144.042-2.209A16.673,16.673,0,0,0,8.884,5.086c-.775-.775-.949-.606-1.376-.453a7.83,7.83,0,0,0-1.26.67A3.8,3.8,0,0,0,4.735,6.9c-.3.648-.648,1.856,1.123,5.008a27.945,27.945,0,0,0,4.913,6.553h0l.005.005.005.005h0a28.055,28.055,0,0,0,6.553,4.913c3.153,1.771,4.36,1.423,5.008,1.123a3.736,3.736,0,0,0,1.6-1.513,7.83,7.83,0,0,0,.67-1.26C24.762,21.307,24.936,21.133,24.156,20.358Z"
        transform="translate(-4.49 -4.502)" fill="#d6d6d6" />
</svg>
