<svg xmlns="http://www.w3.org/2000/svg" width="15" height="15" viewBox="0 0 15 15">
  <g id="profile" transform="translate(-1.5 -1.5)">
    <path id="Path_2186" data-name="Path 2186" d="M17.455,10.227A2.727,2.727,0,1,1,14.727,7.5,2.727,2.727,0,0,1,17.455,10.227Zm-1.364,0a1.364,1.364,0,1,1-1.364-1.364A1.364,1.364,0,0,1,16.091,10.227Z" transform="translate(-5.727 -3.273)" fill="#0e0e0f" fill-rule="evenodd"/>
    <path id="Path_2187" data-name="Path 2187" d="M9,1.5A7.5,7.5,0,1,0,16.5,9,7.5,7.5,0,0,0,9,1.5ZM2.864,9a6.112,6.112,0,0,0,1.3,3.779,6.138,6.138,0,0,1,9.715-.057A6.136,6.136,0,1,0,2.864,9ZM9,15.136a6.111,6.111,0,0,1-3.867-1.372,4.774,4.774,0,0,1,7.791-.046A6.112,6.112,0,0,1,9,15.136Z" fill="#0e0e0f" fill-rule="evenodd"/>
  </g>
</svg>
